<?xml version="1.0" encoding="UTF-8" standalone="no"?>
<!-- Created with Inkscape (http://www.inkscape.org/) -->

<svg
   xmlns:dc="http://purl.org/dc/elements/1.1/"
   xmlns:cc="http://creativecommons.org/ns#"
   xmlns:rdf="http://www.w3.org/1999/02/22-rdf-syntax-ns#"
   xmlns:svg="http://www.w3.org/2000/svg"
   xmlns="http://www.w3.org/2000/svg"
   xmlns:sodipodi="http://sodipodi.sourceforge.net/DTD/sodipodi-0.dtd"
   xmlns:inkscape="http://www.inkscape.org/namespaces/inkscape"
   width="1052.3622"
   height="744.09448"
   id="svg2"
   version="1.1"
   inkscape:version="0.48.3.1 r9886"
   sodipodi:docname="ubunchu.svg">
  <defs
     id="defs4" />
  <sodipodi:namedview
     id="base"
     pagecolor="#ffffff"
     bordercolor="#666666"
     borderopacity="1.0"
     inkscape:pageopacity="0.0"
     inkscape:pageshadow="2"
     inkscape:zoom="0.7"
     inkscape:cx="465.55379"
     inkscape:cy="276.67306"
     inkscape:document-units="px"
     inkscape:current-layer="g3091"
     showgrid="false"
     inkscape:window-width="1362"
     inkscape:window-height="1022"
     inkscape:window-x="1423"
     inkscape:window-y="85"
     inkscape:window-maximized="0"
     showborder="true"
     inkscape:showpageshadow="false" />
  <metadata
     id="metadata7">
    <rdf:RDF>
      <cc:Work
         rdf:about="">
        <dc:format>image/svg+xml</dc:format>
        <dc:type
           rdf:resource="http://purl.org/dc/dcmitype/StillImage" />
        <dc:title />
      </cc:Work>
    </rdf:RDF>
  </metadata>
  <g
     inkscape:label="Layer 1"
     inkscape:groupmode="layer"
     id="layer1"
     transform="translate(0,-308.2677)">
    <text
       xml:space="preserve"
       style="font-size:40px;font-style:normal;font-weight:normal;line-height:125%;letter-spacing:0px;word-spacing:0px;fill:#000000;fill-opacity:1;stroke:none;font-family:Sans"
       x="398.57144"
       y="510.93362"
       id="text3071"
       sodipodi:linespacing="125%"><tspan
         sodipodi:role="line"
         id="tspan3073"
         x="398.57144"
         y="510.93362" /></text>
    <flowRoot
       xml:space="preserve"
       id="flowRoot3075"
       style="font-size:40px;font-style:normal;font-weight:normal;line-height:125%;letter-spacing:0px;word-spacing:0px;fill:#000000;fill-opacity:1;stroke:none;font-family:Sans"><flowRegion
         id="flowRegion3077"><rect
           id="rect3079"
           width="187.14285"
           height="262.85715"
           x="431.42856"
           y="516.64789" /></flowRegion><flowPara
         id="flowPara3081" /></flowRoot>    <text
       xml:space="preserve"
       style="font-size:144px;font-style:normal;font-variant:normal;font-weight:bold;font-stretch:normal;line-height:125%;letter-spacing:0px;word-spacing:0px;fill:#000000;fill-opacity:1;stroke:none;font-family:aoyagireisyosimo;-inkscape-font-specification:aoyagireisyosimo Bold"
       x="256.31781"
       y="697.70081"
       id="text3083"
       sodipodi:linespacing="125%"
       transform="scale(1.1011369,0.90815231)"><tspan
         sodipodi:role="line"
         id="tspan3085"
         x="256.31781"
         y="697.70081" /></text>
    <g
       id="g3091"
       transform="matrix(1.4722222,0,0,1.4722222,-318.48274,-218.8955)">
      <g
         id="g3106">
        <g
           id="g3067"
           transform="translate(302.33319,407.68807)">
          <path
             id="path3059"
             d="m 283.465,141.734 c 0,78.273 -63.457,141.73 -141.734,141.73 C 63.454,283.464 0,220.008 0,141.734 0,63.455 63.453,0 141.73,0 220.007,0 283.465,63.455 283.465,141.734 z"
             inkscape:connector-curvature="0" />
          <path
             id="path3061"
             d="m 45.356,122.812 c -10.453,0 -18.923,8.47 -18.923,18.923 0,10.449 8.47,18.92 18.923,18.92 10.449,0 18.92,-8.471 18.92,-18.92 0,-10.454 -8.47,-18.923 -18.92,-18.923 z m 135.107,86.002 c -9.051,5.225 -12.149,16.793 -6.926,25.84 5.226,9.051 16.793,12.151 25.844,6.926 9.048,-5.224 12.148,-16.792 6.923,-25.842 -5.224,-9.047 -16.793,-12.148 -25.841,-6.924 z M 86.458,141.732 c 0,-18.701 9.293,-35.219 23.504,-45.221 L 96.128,73.338 c -16.56,11.064 -28.878,27.978 -33.995,47.788 5.977,4.872 9.796,12.291 9.796,20.608 0,8.315 -3.819,15.734 -9.797,20.605 5.116,19.812 17.435,36.726 33.995,47.789 l 13.835,-23.175 c -14.211,-10 -23.504,-26.517 -23.504,-45.221 z m 55.275,-55.275 c 28.877,0 52.564,22.141 55.047,50.373 l 26.968,-0.394 c -1.327,-20.844 -10.432,-39.562 -24.425,-53.319 -7.194,2.718 -15.505,2.306 -22.688,-1.842 -7.192,-4.152 -11.705,-11.156 -12.941,-18.757 -6.992,-1.935 -14.351,-2.99 -21.96,-2.99 -13.086,0 -25.449,3.072 -36.431,8.512 l 13.146,23.56 c 7.077,-3.293 14.963,-5.143 23.284,-5.143 z m 0,110.551 c -8.322,0 -16.207,-1.85 -23.285,-5.143 L 105.3,215.427 c 10.983,5.438 23.347,8.511 36.433,8.511 7.609,0 14.968,-1.055 21.961,-2.99 1.236,-7.601 5.75,-14.605 12.943,-18.76 7.183,-4.146 15.494,-4.558 22.688,-1.839 13.992,-13.758 23.097,-32.476 24.422,-53.32 l -26.968,-0.394 c -2.481,28.236 -26.169,50.373 -55.046,50.373 z M 180.46,74.649 c 9.05,5.227 20.619,2.126 25.842,-6.921 5.226,-9.051 2.128,-20.619 -6.923,-25.845 -9.049,-5.224 -20.617,-2.124 -25.843,6.927 -5.224,9.047 -2.124,20.616 6.924,25.839 z"
             inkscape:connector-curvature="0"
             style="fill:#ffffff" />
        </g>
        <flowRoot
           xml:space="preserve"
           id="flowRoot3001"
           style="font-size:144px;font-style:normal;font-variant:normal;font-weight:normal;font-stretch:normal;line-height:125%;letter-spacing:0px;word-spacing:0px;fill:#000000;fill-opacity:1;stroke:none;font-family:KokuryuOtf;-inkscape-font-specification:KokuryuOtf"
           transform="matrix(2.9793501,0.08453972,-0.09223195,2.383076,-715.3313,-573.73536)"><flowRegion
             id="flowRegion3003"><rect
               id="rect3005"
               width="234.28572"
               height="268.57144"
               x="402.85715"
               y="395.21933"
               style="font-size:144px;font-style:normal;font-variant:normal;font-weight:normal;font-stretch:normal;font-family:KokuryuOtf;-inkscape-font-specification:KokuryuOtf" /></flowRegion><flowPara
             id="flowPara3007">人</flowPara></flowRoot>        <flowRoot
           xml:space="preserve"
           id="flowRoot3009"
           style="font-size:41.01409149px;font-style:italic;font-variant:normal;font-weight:bold;font-stretch:normal;font-family:URW Bookman L;-inkscape-font-specification:URW Bookman L Bold Italic"
           transform="matrix(1.2190932,0,0,1.2190932,-55.062133,156.00199)"><flowRegion
             id="flowRegion3011"><rect
               id="rect3013"
               width="152.85715"
               height="52.857143"
               x="318.57144"
               y="442.66592"
               style="font-size:41.01409149px;font-style:italic;font-variant:normal;font-weight:bold;font-stretch:normal;baseline-shift:baseline;font-family:URW Bookman L;-inkscape-font-specification:URW Bookman L Bold Italic" /></flowRegion><flowPara
             id="flowPara3015">UBUN</flowPara></flowRoot>        <text
           xml:space="preserve"
           style="font-size:50px;font-style:italic;font-variant:normal;font-weight:bold;font-stretch:normal;line-height:125%;letter-spacing:0px;word-spacing:0px;fill:#000000;fill-opacity:1;stroke:none;font-family:URW Bookman L;-inkscape-font-specification:URW Bookman L Bold Italic"
           x="570.45825"
           y="792.90125"
           id="text3017"
           sodipodi:linespacing="125%"><tspan
             sodipodi:role="line"
             id="tspan3019"
             x="570.45825"
             y="792.90125">CHU</tspan></text>
      </g>
    </g>
  </g>
</svg>
