<?xml version="1.0" encoding="UTF-8" standalone="no"?>
<!-- Created with Inkscape (http://www.inkscape.org/) -->

<svg
   xmlns:dc="http://purl.org/dc/elements/1.1/"
   xmlns:cc="http://creativecommons.org/ns#"
   xmlns:rdf="http://www.w3.org/1999/02/22-rdf-syntax-ns#"
   xmlns:svg="http://www.w3.org/2000/svg"
   xmlns="http://www.w3.org/2000/svg"
   xmlns:sodipodi="http://sodipodi.sourceforge.net/DTD/sodipodi-0.dtd"
   xmlns:inkscape="http://www.inkscape.org/namespaces/inkscape"
   width="1052.3622"
   height="744.09448"
   id="svg2"
   version="1.1"
   inkscape:version="0.48.3.1 r9886"
   sodipodi:docname="ubunchu.svg">
  <defs
     id="defs4" />
  <sodipodi:namedview
     id="base"
     pagecolor="#ffffff"
     bordercolor="#666666"
     borderopacity="1.0"
     inkscape:pageopacity="0.0"
     inkscape:pageshadow="2"
     inkscape:zoom="0.7"
     inkscape:cx="465.55379"
     inkscape:cy="333.81592"
     inkscape:document-units="px"
     inkscape:current-layer="g3238"
     showgrid="false"
     inkscape:window-width="1362"
     inkscape:window-height="1022"
     inkscape:window-x="1590"
     inkscape:window-y="119"
     inkscape:window-maximized="0"
     showborder="true"
     inkscape:showpageshadow="false" />
  <metadata
     id="metadata7">
    <rdf:RDF>
      <cc:Work
         rdf:about="">
        <dc:format>image/svg+xml</dc:format>
        <dc:type
           rdf:resource="http://purl.org/dc/dcmitype/StillImage" />
        <dc:title></dc:title>
      </cc:Work>
    </rdf:RDF>
  </metadata>
  <g
     inkscape:label="Layer 1"
     inkscape:groupmode="layer"
     id="layer1"
     transform="translate(0,-308.26744)">
    <text
       xml:space="preserve"
       style="font-size:40px;font-style:normal;font-weight:normal;line-height:125%;letter-spacing:0px;word-spacing:0px;fill:#000000;fill-opacity:1;stroke:none;font-family:Sans"
       x="398.57144"
       y="510.93362"
       id="text3071"
       sodipodi:linespacing="125%"><tspan
         sodipodi:role="line"
         id="tspan3073"
         x="398.57144"
         y="510.93362" /></text>
    <flowRoot
       xml:space="preserve"
       id="flowRoot3075"
       style="font-size:40px;font-style:normal;font-weight:normal;line-height:125%;letter-spacing:0px;word-spacing:0px;fill:#000000;fill-opacity:1;stroke:none;font-family:Sans"><flowRegion
         id="flowRegion3077"><rect
           id="rect3079"
           width="187.14285"
           height="262.85715"
           x="431.42856"
           y="516.64789" /></flowRegion><flowPara
         id="flowPara3081" /></flowRoot>    <text
       xml:space="preserve"
       style="font-size:144px;font-style:normal;font-variant:normal;font-weight:bold;font-stretch:normal;line-height:125%;letter-spacing:0px;word-spacing:0px;fill:#000000;fill-opacity:1;stroke:none;font-family:aoyagireisyosimo;-inkscape-font-specification:aoyagireisyosimo Bold"
       x="256.31781"
       y="697.70081"
       id="text3083"
       sodipodi:linespacing="125%"
       transform="scale(1.1011369,0.90815231)"><tspan
         sodipodi:role="line"
         id="tspan3085"
         x="256.31781"
         y="697.70081" /></text>
    <g
       id="g3091"
       transform="matrix(1.4722222,0,0,1.4722222,-318.48274,-218.8955)">
      <g
         id="g3106">
        <g
           id="g3238">
          <g
             transform="matrix(0.93601614,0,0,0.93601614,336.29546,435.93488)"
             id="g3067">
            <path
               inkscape:connector-curvature="0"
               d="m 283.465,141.734 c 0,78.273 -63.457,141.73 -141.734,141.73 C 63.454,283.464 0,220.008 0,141.734 0,63.455 63.453,0 141.73,0 220.007,0 283.465,63.455 283.465,141.734 z"
               id="path3059" />
            <path
               style="fill:#ffffff"
               inkscape:connector-curvature="0"
               d="m 45.356,122.812 c -10.453,0 -18.923,8.47 -18.923,18.923 0,10.449 8.47,18.92 18.923,18.92 10.449,0 18.92,-8.471 18.92,-18.92 0,-10.454 -8.47,-18.923 -18.92,-18.923 z m 135.107,86.002 c -9.051,5.225 -12.149,16.793 -6.926,25.84 5.226,9.051 16.793,12.151 25.844,6.926 9.048,-5.224 12.148,-16.792 6.923,-25.842 -5.224,-9.047 -16.793,-12.148 -25.841,-6.924 z M 86.458,141.732 c 0,-18.701 9.293,-35.219 23.504,-45.221 L 96.128,73.338 c -16.56,11.064 -28.878,27.978 -33.995,47.788 5.977,4.872 9.796,12.291 9.796,20.608 0,8.315 -3.819,15.734 -9.797,20.605 5.116,19.812 17.435,36.726 33.995,47.789 l 13.835,-23.175 c -14.211,-10 -23.504,-26.517 -23.504,-45.221 z m 55.275,-55.275 c 28.877,0 52.564,22.141 55.047,50.373 l 26.968,-0.394 c -1.327,-20.844 -10.432,-39.562 -24.425,-53.319 -7.194,2.718 -15.505,2.306 -22.688,-1.842 -7.192,-4.152 -11.705,-11.156 -12.941,-18.757 -6.992,-1.935 -14.351,-2.99 -21.96,-2.99 -13.086,0 -25.449,3.072 -36.431,8.512 l 13.146,23.56 c 7.077,-3.293 14.963,-5.143 23.284,-5.143 z m 0,110.551 c -8.322,0 -16.207,-1.85 -23.285,-5.143 L 105.3,215.427 c 10.983,5.438 23.347,8.511 36.433,8.511 7.609,0 14.968,-1.055 21.961,-2.99 1.236,-7.601 5.75,-14.605 12.943,-18.76 7.183,-4.146 15.494,-4.558 22.688,-1.839 13.992,-13.758 23.097,-32.476 24.422,-53.32 l -26.968,-0.394 c -2.481,28.236 -26.169,50.373 -55.046,50.373 z M 180.46,74.649 c 9.05,5.227 20.619,2.126 25.842,-6.921 5.226,-9.051 2.128,-20.619 -6.923,-25.845 -9.049,-5.224 -20.617,-2.124 -25.843,6.927 -5.224,9.047 -2.124,20.616 6.924,25.839 z"
               id="path3061" />
          </g>
          <g
             id="flowRoot3001"
             style="font-size:144px;font-style:normal;font-variant:normal;font-weight:normal;font-stretch:normal;line-height:125%;letter-spacing:0px;word-spacing:0px;fill:#000000;fill-opacity:1;stroke:none;font-family:KokuryuOtf;-inkscape-font-specification:KokuryuOtf"
             transform="matrix(2.7887198,0.07913054,-0.08633059,2.2305976,-616.25493,-482.69329)">
            <path
               id="path3157"
               d="m 495.86775,451.95475 c -2.016,-2.448 -4.608,-3.888 -7.344,-4.608 -0.576,0 -1.152,0.144 -1.584,0.288 -1.728,1.008 -3.312,2.16 -5.04,3.168 -1.152,0.72 -2.16,1.728 -3.168,2.736 -0.576,0.72 -0.864,1.296 -1.152,2.16 0.144,1.008 0.576,1.584 1.44,1.728 0,0.288 0,0.432 0,0.432 -2.88,3.024 -5.904,6.192 -8.784,9.216 -0.864,1.296 -1.584,2.448 -2.304,3.744 -3.744,4.752 -7.776,9.216 -11.952,13.68 -2.16,2.016 -4.176,4.464 -6.048,6.912 -0.144,0.144 -0.288,0.144 -0.288,0.288 -0.144,0.288 -0.144,0.432 -0.288,0.288 0,0.144 0,0.144 0.144,0.144 -0.144,0.144 -0.144,0.144 -0.288,0.144 -0.144,0.72 -0.576,1.152 -1.008,1.44 l -0.288,0.144 0.144,0 c -0.576,1.008 -1.296,1.872 -2.016,2.592 l 0,0.144 c -1.872,2.016 -3.456,4.176 -4.752,6.192 -0.144,0.144 -0.144,0.288 -0.144,0.432 -0.144,0 -0.144,0 -0.144,-0.144 0,0.144 0,0.144 0.144,0.144 -0.432,0.288 -0.864,0.432 -1.008,0.576 -0.144,0 -0.144,0 -0.144,-0.144 0,0.144 0,0.144 0.144,0.144 -0.144,0.144 -0.144,0.288 -0.288,0.288 l 0,-0.144 c -0.144,0.144 -0.144,0.144 -0.144,0.288 -3.6,5.47199 -6.912,11.08801 -10.224,16.56 l 0,-0.144 c -0.72,1.152 -1.296,2.592 -2.016,3.888 0.144,-0.432 0.432,-0.72 0.576,-1.152 -0.144,0.72 -0.288,1.152 -0.576,1.584 -0.144,0 -0.288,0 -0.144,-0.144 -0.144,0 -0.288,0 -0.432,0.144 -1.008,1.584 -1.728,3.312 -2.448,4.896 -1.44,2.736 -2.88,5.328 -4.464,7.92 -0.576,0.72 -0.864,1.296 -0.864,2.016 -0.432,1.008 -1.008,1.872 -1.872,2.304 0,0.288 0,0.432 0.144,0.576 -0.144,0.288 -0.288,0.432 -0.72,0.288 -0.144,1.008 -0.576,1.584 -1.152,2.304 0,0.288 0,0.576 0,0.864 1.44,2.16 2.736,4.176 4.032,6.048 1.152,1.584 2.592,2.736 4.176,3.456 0.72,0.432 1.584,0.864 2.304,1.296 0.432,-0.288 1.152,-0.288 1.872,-0.432 0.432,-0.144 0.72,-0.144 0.864,-0.288 0.144,0.144 0.288,0.144 0.432,0.144 0.144,0 0.144,0 0.288,-0.144 0.144,0.144 0.288,0.144 0.432,0.144 0.144,0 0.144,0 0.288,0 0,0.288 0.144,0.576 0.576,0.432 0,-0.144 0,-0.144 0,-0.288 0.288,-0.144 0.576,-0.144 0.72,-0.288 0.144,-0.144 0.432,-0.288 0.72,-0.72 -0.144,-0.288 -0.144,-0.576 0,-1.008 -0.144,-0.432 0,-0.72 0.432,-1.008 0.144,-0.72 0.432,-1.152 1.152,-1.296 -0.288,-0.288 -0.288,-0.864 -0.144,-1.584 0.144,-0.288 0.288,-0.432 0.72,-0.432 -0.144,-0.576 -0.144,-1.296 0,-2.016 0.432,-1.008 0.72,-2.16 1.008,-3.312 0.288,-1.008 0.576,-2.16 1.152,-3.456 0.432,-1.008 0.864,-2.016 1.584,-3.024 1.008,-0.72 1.728,-1.584 2.304,-2.592 1.152,-1.008 2.016,-2.016 3.024,-3.168 0,0 0,0 -0.144,0 0.432,-0.72 0.864,-1.584 1.008,-2.448 0.72,-0.864 1.44,-1.728 2.448,-2.592 0.432,0 0.72,-0.144 1.008,-0.432 0.864,-0.576 2.016,-1.44 3.168,-2.448 0.288,-0.144 0.576,-0.432 1.008,-0.864 1.872,-1.296 3.744,-2.448 6.048,-3.168 1.44,0 2.736,0.144 4.32,0.576 3.6,0.864 7.056,1.728 10.512,2.736 5.90399,2.448 11.52001,5.328 16.992,8.784 1.872,1.584 4.176,3.024 6.768,4.32 1.152,0.72 2.304,1.584 3.6,2.16 1.296,0.432 2.304,0.72 3.6,1.152 3.6,2.16 6.624,4.464 9.36,7.344 0,1.872 -0.576,3.168 -1.584,4.32 -3.312,1.44 -6.336,2.88 -9.648,4.176 2.304,-0.144 4.752,-0.432 7.056,-0.864 0.72,-0.144 1.44,-0.144 2.16,0 1.152,0.576 2.304,1.152 3.312,1.584 0.288,-0.144 0.72,-0.144 1.152,-0.288 0.72,0.288 1.584,0.576 2.448,1.008 0.144,0.144 0.288,0 0.432,-0.144 0.432,-0.144 0.864,-0.144 1.296,-0.144 0.288,0.144 0.576,0.432 1.008,0.576 0.432,0.288 0.864,0.432 1.44,0.432 0.144,0.288 0.576,0.288 1.008,0.144 0.432,0.288 0.72,0.432 0.864,0.576 0.432,0 0.72,0.144 1.152,0.288 0.144,-0.144 0.288,0 0.576,0.288 0.288,0.288 0.576,0.432 1.008,0.288 0.72,0 1.296,-0.144 1.872,-0.432 -0.144,-0.144 0,-0.288 0.288,-0.432 0.432,0 0.864,0 1.296,-0.144 0,-0.144 0,-0.288 -0.144,-0.432 0.432,0.144 1.008,0.288 1.584,0.432 -0.288,-0.864 -0.288,-1.728 0.144,-2.448 -0.144,-1.008 -0.288,-2.16 -0.288,-3.6 -0.144,-1.296 -0.432,-2.448 -0.864,-3.744 -0.864,-1.584 -1.728,-3.168 -2.736,-4.608 -1.008,-1.44 -2.16,-2.88 -3.024,-4.464 -0.72,-1.008 -1.44,-1.584 -2.448,-2.304 -2.592,-2.16 -5.04,-4.32 -7.776,-6.192 -4.176,-2.448 -8.352,-5.04 -12.816,-7.344 0,0.144 0,0.144 0,0.288 0.288,0.144 0.864,0.288 1.296,0.432 -0.72,-0.144 -1.296,-0.288 -1.584,-0.432 0.576,0.288 1.44,0.72 2.16,1.296 l 0,0.144 c -1.872,-0.864 -3.456,-1.872 -5.184,-2.88 0.432,0.144 1.008,0.288 1.44,0.432 l 0,-0.144 c -1.008,-0.432 -2.016,-0.864 -2.736,-1.296 0.144,-0.144 0.288,0 0.432,0.288 0.144,0 0.432,0 0.864,0.144 0.432,0.432 1.008,0.576 1.44,0.72 0.144,0.144 0.288,0.144 0.432,0.144 0.432,0.288 0.864,0.576 1.296,0.72 -6.04799,-3.168 -11.95201,-5.904 -18,-8.64 -6.91199,-2.592 -13.96801,-5.184 -21.024,-7.2 0.576,0.288 1.296,0.72 2.016,1.008 -0.432,0.144 -0.72,0.288 -0.72,0.576 0.432,0.432 1.008,0.864 1.584,1.296 -0.144,0.144 -0.288,0.144 -0.432,0.144 0.144,0.144 0.288,0.144 0.432,0.144 -0.144,0.144 -0.288,0.144 -0.432,0.144 0.432,0.432 0.864,0.576 1.44,0.576 -0.144,0.144 -0.288,0.288 -0.432,0.144 0.144,0.144 0.288,0.432 0.432,0.576 0.432,0 0.864,-0.144 1.152,-0.288 2.88,0.864 5.76,1.872 8.928,2.88 0.432,0 0.72,0.144 1.152,0.288 0,0.144 0.144,0.144 0.288,0.144 0.144,0.144 0.288,0.288 0.432,0.144 1.008,0.576 2.16,1.152 3.312,1.584 -0.576,-0.144 -1.152,-0.288 -1.872,-0.432 -2.16,-0.72 -4.032,-1.584 -6.048,-2.448 -1.584,-0.288 -3.168,-0.864 -4.752,-1.44 -0.432,-0.144 -0.72,0 -0.864,0.144 -1.584,-0.432 -3.024,-0.576 -4.608,-0.576 0.288,0.432 0.72,0.72 1.152,0.864 -0.72,0 -1.296,-0.144 -2.016,-0.432 0,0.144 0,0.144 0.144,0.144 0,0.144 0,0.288 -0.144,0.144 -0.72,-0.144 -1.44,-0.432 -2.304,-0.72 0.144,0.144 0.288,0.288 0.432,0.432 2.16,0.72 4.608,1.296 6.912,1.728 0.288,0.144 0.72,0.288 1.152,0.432 0.576,0.288 1.152,0.576 1.728,0.72 1.296,0.144 2.736,0.576 4.032,1.296 -0.432,0.288 -0.72,0.288 -1.152,0 -2.448,-0.864 -5.04,-1.728 -7.776,-2.448 -0.576,-0.144 -1.296,-0.432 -1.872,-0.576 -1.584,-0.144 -3.312,-0.72 -4.752,-1.584 -0.864,0.144 -1.728,0.288 -2.592,0.144 -0.144,0.144 -0.144,0.144 -0.288,0.144 -1.152,0.432 -2.304,0.432 -3.312,0 0,-0.144 0.144,-0.288 0.288,-0.288 -0.144,0.432 -0.288,0.432 -0.432,0.144 0.144,-0.288 0.432,-0.576 0.864,-0.864 0.288,0 0.432,-0.144 0.576,-0.432 -0.144,0.144 -0.288,0.288 -0.432,0.432 -0.144,0 -0.144,0 -0.144,-0.144 0.288,-0.432 0.576,-0.576 0.864,-0.72 0.288,-0.288 0.576,-0.72 0.864,-1.152 -0.144,0.288 -0.432,0.576 -0.576,0.72 -0.432,0.144 -0.72,0.288 -1.008,0.576 -0.288,-0.144 -0.72,-0.288 -0.864,-0.576 -0.432,0 -0.864,-0.144 -1.296,-0.432 0.72,-1.008 1.728,-1.872 2.592,-2.736 0.144,0.288 0.432,0.432 0.864,0.432 l -0.144,0 c 0.432,-0.144 0.72,-0.144 1.152,0 -0.144,0 -0.288,0 -0.288,0.144 -1.008,0.288 -1.584,0.864 -1.872,1.728 l -0.144,0 c 0,0.144 0,0.144 0.144,0.144 0.144,0 0.144,0 0.288,-0.144 0,0.144 0,0.144 0,0.288 0.144,-0.144 0.144,-0.144 0.288,-0.288 0.576,-0.432 1.152,-0.72 1.872,-1.152 0.432,-0.576 1.152,-0.864 2.016,-0.864 l 0,-0.144 c 0,-0.432 -0.144,-0.576 -0.432,-0.576 0.288,-0.432 0.576,-0.864 0.72,-1.296 -0.144,0.288 -0.288,0.432 -0.432,0.576 -0.432,0.144 -0.72,0.432 -0.864,0.72 -0.432,0 -0.864,-0.144 -1.296,-0.432 0.432,-0.432 0.864,-1.008 1.44,-1.44 0,0 0.144,0 0.288,0 0.432,-0.288 0.72,-0.72 0.864,-1.152 0.144,-0.144 0.288,-0.144 0.432,-0.288 -0.144,-0.144 -0.144,-0.144 0,-0.288 0.576,-0.144 1.296,-0.72 1.872,-1.296 0.144,-0.144 0.432,-0.288 0.72,-0.432 0.288,-0.288 0.576,-0.576 0.864,-1.008 0,0.144 0,0.432 0,0.72 -1.008,0.864 -2.016,1.584 -2.88,2.304 0,0.144 -0.144,0 -0.144,-0.144 l 0,0.144 c -0.72,0.864 -1.584,1.584 -2.304,2.304 0.288,-0.144 0.72,-0.288 1.152,-0.432 1.008,-0.432 1.728,-1.152 2.448,-2.16 0.144,-0.432 0.576,-0.864 1.152,-1.152 0.288,0.144 0.576,0 0.72,-0.432 0.144,0.144 0.144,0.288 0,0.432 0.144,-0.144 0.288,-0.288 0.432,-0.576 0,0.144 0,0.144 0,0.144 l 0,0.288 c 0,-0.144 0.144,-0.288 0.288,-0.432 l -0.144,0 c 0.432,-0.144 0.72,-0.432 0.864,-0.72 0,0 0,0 0.144,0 l -0.288,0.288 0,0.144 c -0.432,0.432 -0.72,0.864 -1.008,1.152 -1.296,1.584 -2.592,3.024 -3.888,4.032 0.864,-0.72 1.728,-1.584 2.592,-2.592 0.144,-0.144 0.288,-0.432 0.432,-0.576 0.144,0 0.432,0 0.576,0 -0.144,0 -0.144,0 -0.144,-0.144 0.144,-0.144 0.288,-0.288 0.576,-0.432 l -0.144,0 c 0.432,-0.432 0.864,-0.864 1.296,-1.44 l -0.144,0 c 0,-0.144 0,-0.144 0.144,-0.288 0.144,-0.144 0.144,-0.144 0.288,-0.144 0,0 0,0 0,0 0,-0.144 0.144,-0.144 0.288,-0.288 l -0.144,0 c 0.144,-0.144 0.288,-0.288 0.576,-0.288 0.144,-0.432 0.288,-0.72 0.432,-0.864 0,-0.144 0.144,-0.144 0.144,-0.288 0.576,-0.72 1.152,-1.44 1.872,-2.16 0.72,-0.72 1.44,-1.152 2.16,-1.728 0,0 0,0 0.144,0 0.144,-0.288 0.432,-0.432 0.864,-0.432 -0.432,0.288 -0.72,0.576 -1.008,1.008 -0.576,0.288 -1.008,0.576 -1.296,1.152 0.144,-0.144 0.288,-0.144 0.432,-0.288 0.144,0 0.144,0 0.288,0 -0.432,0.432 -0.864,0.864 -1.296,1.296 -0.288,0.576 -0.576,1.008 -1.008,1.296 -0.72,1.152 -1.44,2.16 -2.448,2.88 -0.432,0.144 -0.72,0.288 -0.72,0.576 -0.144,0 -0.288,0 -0.288,-0.144 -1.872,1.872 -3.744,4.032 -5.184,6.192 -0.432,0.72 -0.864,1.584 -1.296,2.448 0.432,-0.144 0.864,-0.288 1.296,-0.72 0.72,-0.288 1.296,-0.72 1.728,-1.44 0.72,-0.576 1.296,-0.864 2.016,-1.296 2.448,-3.024 4.896,-5.616 7.488,-8.352 l 0,0.288 c 0.288,-0.144 0.432,-0.288 0.432,-0.432 0,0.144 0,0.144 -0.144,0.144 1.008,-1.296 1.872,-2.304 3.168,-3.168 0.144,-0.432 0.72,-0.72 1.44,-1.008 -0.72,1.296 -1.584,2.592 -2.448,3.888 0.864,-1.584 2.016,-3.024 3.312,-4.608 1.584,-1.008 3.024,-2.16 4.608,-3.6 0.576,-0.432 1.152,-0.72 1.728,-1.152 0.72,-0.288 1.44,-0.576 2.016,-1.008 -0.288,0.72 -0.864,1.44 -1.296,1.872 -0.144,0.144 -0.432,0.288 -0.576,0.432 -1.008,0.432 -1.872,1.152 -2.592,2.016 0.576,-0.432 1.152,-0.864 1.584,-1.296 0.288,-0.144 0.576,-0.288 0.864,-0.432 -0.144,0.144 -0.144,0.144 -0.288,0 0.288,0 0.576,-0.144 0.864,-0.432 0.432,-0.72 1.152,-1.152 1.872,-1.584 0.72,-0.576 1.728,-1.008 2.736,-1.296 1.008,-0.144 1.728,-0.576 2.448,-1.296 0.288,-0.288 0.432,-0.576 0.864,-0.72 -0.576,0.576 -1.152,1.152 -1.872,1.728 0,0.144 0,0.144 0,0.144 0.288,-0.432 0.72,-0.72 1.296,-1.008 0,-0.144 0.144,-0.432 0.576,-0.72 0.432,-0.432 0.864,-0.864 1.296,-1.296 0.72,-0.432 1.584,-0.864 2.592,-1.296 0.576,-0.288 1.152,-0.576 1.584,-0.864 0.864,-0.72 1.728,-0.864 2.736,-0.576 1.44,-0.432 2.736,-0.864 3.888,-1.584 0.432,-0.144 0.864,-0.288 1.152,-0.432 1.152,-0.432 2.16,-1.152 3.168,-2.016 1.008,-1.152 1.44,-2.448 1.584,-4.032 0.144,-1.584 0,-3.168 -0.576,-5.04 -0.144,-0.144 -0.288,-0.288 -0.288,-0.72 -0.144,-0.576 -0.288,-1.296 -0.432,-2.016 -0.72,-1.152 -1.584,-2.304 -2.448,-3.6 -1.584,-2.88 -3.456,-5.76 -5.904,-8.208 -0.432,-0.288 -0.72,-0.432 -0.864,-0.864 -0.576,-0.72 -1.296,-1.296 -2.016,-2.016 m -38.304,52.272 c -0.72,0.864 -1.44,1.728 -2.016,2.448 0.288,0 0.576,-0.288 1.008,-0.72 0,0.432 0,0.576 -0.144,0.72 -0.432,0.432 -0.864,0.432 -1.44,0.144 0.72,-1.008 1.584,-1.872 2.592,-2.736 l 0,0.144 m 17.136,8.064 0,0.144 c 0.144,0.288 0.432,0.432 0.576,0.432 -2.592,-0.72 -4.896,-1.584 -7.344,-2.448 -1.152,-0.432 -2.16,-0.864 -3.168,-1.008 3.168,1.008 6.624,1.872 9.936,2.88 m -22.464,1.296 c -0.144,0.144 -0.288,0.288 -0.432,0.432 -0.288,0.144 -0.432,0.144 -0.576,0.288 0.144,0 0.144,-0.144 0.144,-0.288 -0.288,0.144 -0.576,0.288 -0.72,0.432 -0.864,0.288 -1.728,0.576 -2.448,0.864 0.144,-0.288 0.432,-0.576 0.576,-0.864 0.288,-0.144 0.576,-0.432 0.72,-0.864 0.864,0 1.728,0 2.736,0 m 20.016,1.296 c -0.144,0 -0.288,0 -0.288,0 0.72,0.288 1.44,0.432 2.16,0.432 1.584,0.576 3.024,1.152 4.32,1.872 -0.576,-0.288 -1.296,-0.576 -1.872,-0.864 -0.144,0 -0.144,0 0,0.144 0,0.144 0,0.144 0.144,0.144 -0.432,-0.144 -1.008,-0.432 -1.44,-0.72 -0.576,-0.144 -1.152,-0.288 -1.728,-0.432 0.144,0.144 0.144,0.288 0.288,0.432 -1.584,-0.576 -2.88,-1.296 -4.32,-1.872 -0.144,-0.144 -0.432,-0.288 -0.72,-0.432 1.296,0.432 2.448,1.008 3.456,1.296 m 14.4,2.016 c 0.576,0.72 1.296,1.008 2.304,1.152 l 0,0.144 c 0.72,0.432 1.296,0.864 2.016,1.008 -3.312,-1.44 -6.768,-2.88 -9.936,-4.464 l 0,-0.144 c 1.872,0.864 3.744,1.584 5.616,2.304 m -11.232,1.584 c -0.288,0 -0.576,0 -1.008,-0.144 0.432,0.144 0.72,0.432 0.864,0.576 -2.16,-0.72 -4.032,-1.44 -5.904,-2.16 0.144,0 0.144,0 0.144,-0.144 0.288,0.144 0.576,0.288 1.008,0.288 0,-0.144 0,-0.144 -0.144,-0.288 -1.728,-0.288 -3.456,-0.864 -5.04,-1.584 -0.72,0.144 -1.44,0 -1.872,-0.432 4.032,1.008 8.208,2.304 11.952,3.888 m -10.8,-2.448 c 0.144,0 0.144,0 0.144,-0.144 0.144,0.144 0.432,0.144 0.72,0.144 -0.144,0.144 0,0.144 0.144,0.144 0.144,0.144 0.288,0.144 0.72,0.144 -0.144,0 0,0 0.432,0 0.288,0.432 0.576,0.576 1.008,0.432 l 0,-0.144 c 0.144,0.144 0.144,0.144 0.144,0.144 0.144,0 0.144,0 0,-0.144 -0.144,0.144 -0.144,0.144 0,0.288 0.144,0.144 0.432,0.288 0.864,0.288 -0.144,-0.144 -0.288,-0.144 -0.288,-0.288 0.144,0.144 0.432,0.144 0.72,0.288 l -0.144,0 c 0.288,0.144 0.72,0.144 1.152,0.288 -0.144,0 -0.144,0 0,0.144 0,0.144 0.144,0.144 0.288,0.144 l 0,-0.288 c 0.144,0.288 0.288,0.432 0.576,0.432 l 0.144,-0.144 0.144,0 c -0.144,0.144 -0.144,0.144 0,0.288 0.144,0.144 0.288,0.144 0.432,0 0,0.288 0.432,0.432 1.008,0.432 0.432,0.144 0.576,0.144 0.72,0.288 1.008,0.432 1.872,0.72 2.736,1.008 -0.144,0.144 0,0.288 0.144,0.288 0,0 0,0.144 0,0.288 -3.6,-1.44 -6.912,-2.736 -10.368,-3.888 -0.864,-0.144 -1.728,-0.288 -2.592,-0.576 0.144,-0.144 0.288,-0.144 0.432,-0.288 0.144,0.144 0.432,0.288 0.72,0.432 m 2.448,1.296 c 0.576,0.288 1.296,0.432 2.16,0.432 l -0.144,0 c 0.432,0.432 1.008,0.576 1.728,0.72 -0.144,0 0,0 0.288,0.144 0.144,0.144 0.576,0.288 0.864,0.288 0.144,0.144 0.144,0.144 0.288,0.288 0,-0.144 0.144,-0.144 0.432,0 0.288,0 0.576,0 0.72,0.144 0.288,0.144 0.72,0.288 1.152,0.576 -1.872,-0.144 -3.312,-0.432 -4.896,-1.152 -1.296,-0.432 -2.736,-0.864 -4.176,-1.296 -0.864,0.432 -1.584,0.144 -2.016,-0.576 -1.008,-0.432 -2.16,-0.72 -3.168,-1.008 2.304,0.288 4.608,0.72 6.768,1.44 m 7.344,1.008 c -1.44,-0.432 -2.592,-1.008 -3.744,-1.44 0.144,0.144 0.288,0.288 0.72,0.432 l 0.288,0 c 0.144,0.288 0.576,0.432 1.296,0.432 0.432,0.144 0.72,0.288 0.864,0.576 l 0.576,0 m 12.672,0.288 c 2.88,1.584 6.048,3.024 9.072,4.608 -3.024,-1.44 -6.192,-2.736 -9.072,-4.32 -0.288,0.144 -0.576,0 -0.864,-0.432 -1.152,-0.288 -2.16,-0.72 -3.024,-1.296 1.152,0.432 2.592,1.008 3.888,1.44 m -13.536,3.456 c 0,0 0,0 0,0.144 0,0.144 0.144,0.144 0.432,0.288 -1.44,-0.432 -2.736,-0.864 -4.176,-1.296 l 0,-0.432 c 1.296,0.432 2.448,0.864 3.744,1.296 m -3.6,-0.144 c 0.144,0.144 0.432,0.288 0.72,0.432 1.872,0.576 3.888,1.296 6.048,2.304 -3.312,-1.44 -6.624,-2.592 -10.08,-3.456 -0.144,0 -0.288,-0.144 -0.288,-0.288 1.152,0.288 2.304,0.576 3.6,1.008 m 35.712,7.2 c -1.296,-0.432 -2.592,-1.152 -3.744,-1.872 0,0.144 0,0.144 -0.144,0.288 0.144,0.144 0.288,0.432 0.72,0.576 -2.736,-1.152 -5.328,-2.448 -7.488,-4.32 -0.144,-0.144 -0.432,-0.288 -0.576,-0.432 -0.576,-0.288 -1.152,-0.576 -1.872,-0.864 -0.72,-0.288 -1.44,-0.576 -1.872,-1.008 0,0.144 0,0.144 -0.144,0 -0.144,0 -0.144,-0.144 -0.144,-0.288 5.03999,2.448 10.08001,5.04 15.264,7.92 m -9.792,-4.032 c -0.144,0.144 -0.288,0.144 -0.432,0 -0.432,-0.288 -0.864,-0.432 -1.296,-0.576 -1.008,-0.144 -1.584,-0.72 -2.016,-1.44 1.296,0.72 2.448,1.296 3.744,2.016 m -7.344,-1.008 c 0,0.144 0.144,0.144 0.576,0.288 0.432,0.144 0.864,0.432 1.584,0.576 l 0,0.144 c 0.144,0.288 0.288,0.432 0.432,0.576 0,0.144 0.288,0.288 0.72,0.432 0.432,0.144 1.008,0.432 1.872,0.864 -1.728,-0.576 -3.456,-1.44 -5.04,-2.304 -0.576,-0.144 -1.152,-0.576 -1.728,-1.008 0.144,0.144 0.144,0 0.144,-0.144 0.576,0 1.008,0.144 1.44,0.576 m 17.856,4.752 c -3.024,-1.872 -5.904,-3.456 -8.928,-5.184 3.024,1.584 5.904,3.168 8.928,5.184 m -17.136,-3.6 c 0.432,0.144 0.72,0.432 1.008,0.576 1.008,0.432 2.16,0.864 3.456,1.584 -0.72,-0.288 -1.152,-0.576 -1.584,-0.72 -1.44,-0.144 -2.592,-0.432 -3.6,-1.44 0,0 0,0 0,-0.144 0,0.144 0,0 0,-0.144 -0.144,0 -0.288,0 -0.432,0 0,0.144 0,0.144 0.144,0.144 -0.576,-0.288 -1.152,-0.432 -1.584,-0.432 0,0 0,0 0.144,-0.144 0.864,0.144 1.728,0.432 2.448,0.72 m 2.736,-0.432 c 0.72,0.576 1.44,1.008 2.16,1.44 -0.144,0.144 -0.144,0.144 -0.144,-0.144 -0.144,0 -0.288,0 -0.288,0.144 -0.288,-0.144 -0.576,-0.288 -1.008,-0.288 l 0,-0.144 c -0.72,-0.432 -1.44,-0.72 -2.016,-1.152 0.288,0.144 0.72,0.288 1.152,0.432 l 0.144,-0.288 m -3.024,1.296 c 0,0 0.144,0 0.288,0.144 0.432,0.144 0.864,0.288 1.44,0.432 0.144,0.288 0.432,0.432 0.576,0.576 0,-0.144 0.144,-0.144 0.288,0 0.288,0.144 0.576,0.288 0.864,0.432 -0.144,0.144 -0.144,0.144 -0.144,0.144 l 0.144,0 c 0.144,0 0.144,0 0.288,0 -0.144,0.144 -0.144,0.288 0,0.288 0.144,-0.144 0.432,0 0.576,0.144 -0.144,0.144 -0.144,0.144 0,0.288 0,0.144 0.144,0 0.288,-0.144 -0.144,0.144 0,0.288 0.144,0.288 l -0.288,0 c 0.288,0.288 0.576,0.576 0.864,0.72 -1.008,-0.72 -2.16,-1.296 -3.168,-1.728 0.144,0.144 0.288,0.144 0.432,0.288 -0.144,0.144 -0.576,-0.144 -1.584,-0.72 -0.864,-0.432 -2.448,-1.296 -4.32,-2.592 1.008,0.432 2.16,1.008 3.312,1.44 m 9.648,-0.288 c -0.432,-0.432 -0.864,-0.72 -1.152,-1.008 0,0.144 0,0.144 0,0.144 -0.144,0.144 -0.144,0.144 -0.288,0.144 0.432,0.432 0.864,0.72 1.296,1.008 0.576,0.144 1.152,0.432 1.728,0.432 -0.288,0 -0.576,-0.288 -0.864,-0.576 0,0.144 0,0.288 0.144,0.432 l -0.144,0.144 c -0.144,-0.144 -0.288,-0.288 -0.144,-0.432 -0.288,0 -0.432,-0.144 -0.576,-0.288 m -14.256,0.864 c 0,-0.144 0.144,-0.144 0.288,-0.144 0.288,0.288 0.576,0.432 1.008,0.432 -0.576,-0.144 -1.008,-0.432 -1.296,-0.864 0.288,0.288 0.72,0.432 1.296,0.432 -0.144,0 -0.144,0 -0.144,-0.144 0.144,-0.144 0,-0.432 -0.144,-0.576 0.432,0.144 0.864,0.288 1.296,0.432 1.44,0.72 3.024,1.584 4.464,2.592 0,0.144 0,0.144 0.144,0.288 -0.144,0.144 0,0.288 0.432,0.432 0.432,0.144 0.864,0.432 1.44,0.864 -2.16,-1.152 -4.32,-2.448 -6.768,-3.888 -0.144,0.144 0.144,0.288 0.576,0.576 0.432,0.288 1.152,0.72 2.16,1.44 -0.576,-0.432 -1.296,-0.72 -2.016,-1.152 0.144,0.288 0.288,0.432 0.72,0.432 1.44,1.008 2.736,2.016 4.032,2.88 -1.296,-0.72 -2.448,-1.584 -3.6,-2.592 -0.432,0 -0.72,0 -0.864,0 0.144,0.144 0.144,0.144 0.288,0.288 -0.144,-0.144 -0.288,-0.144 -0.432,-0.144 0.864,0.576 1.728,1.152 2.448,1.584 -0.432,-0.288 -0.864,-0.432 -1.152,-0.288 0.432,0.432 1.008,0.864 1.296,1.296 -0.288,-0.432 -0.864,-0.72 -1.296,-1.008 -0.144,-0.144 -0.288,-0.144 -0.576,-0.288 -0.432,-0.144 -0.72,-0.288 -1.152,-0.432 0,0.144 0,0.288 0.144,0.288 0.72,0.432 1.296,0.864 1.728,1.44 -0.144,0 -0.144,0 -0.144,-0.144 0,0.144 0.144,0.288 0.432,0.432 0.288,0.144 0.72,0.432 1.296,0.72 0.432,0.432 1.008,0.72 1.584,1.008 -0.432,-0.144 -1.008,-0.288 -1.44,-0.432 l 0,-0.288 c -0.144,0.288 -0.288,0.288 -0.432,0 l 0,-0.288 c -0.576,-0.432 -1.152,-0.72 -1.584,-0.864 0,0 0,0 0.144,0 -0.144,-0.144 -0.288,-0.144 -0.576,-0.288 -0.144,0.144 -0.144,0.144 0,0.144 0,0.144 0.144,0.144 0.288,0.144 -0.432,-0.144 -0.72,-0.288 -1.152,-0.576 l 0.144,-0.144 c -0.288,-0.144 -0.576,-0.288 -0.72,-0.432 0.144,0.288 0.432,0.432 0.576,0.432 -0.576,-0.288 -1.152,-0.576 -1.728,-1.008 0,0.144 0,0.144 0.144,0.144 l 0,-0.144 c -0.144,-0.144 -0.144,-0.144 -0.288,-0.288 l 0,0.144 c -1.008,-0.72 -2.016,-1.44 -3.312,-2.16 -0.144,-0.144 -0.144,-0.288 -0.288,-0.432 0.144,0 0.144,0 0.144,0 -0.144,0 -0.144,0 0,0 0,0.144 0.144,0.144 0.432,0.144 -0.144,0 -0.144,0 -0.144,-0.144 0.432,0.288 0.72,0.432 1.152,0.432 0.144,-0.144 0.288,-0.144 0.432,-0.288 -0.432,-0.144 -0.864,-0.432 -1.152,-0.864 0.72,0.432 1.296,0.72 1.872,0.864"
               inkscape:connector-curvature="0" />
          </g>
          <g
             id="flowRoot3009"
             style="font-size:41.01409149px;font-style:italic;font-variant:normal;font-weight:bold;font-stretch:normal;font-family:URW Bookman L;-inkscape-font-specification:URW Bookman L Bold Italic"
             transform="matrix(1.1410909,0,0,1.1410909,-9.1315023,200.35264)">
            <g
               id="g3175">
              <path
                 d="m 341.98155,456.46949 0.90231,0.082 c 1.4765,0.12305 2.17374,0.73826 2.17374,1.88665 0,0.36913 -0.082,1.23043 -0.16405,1.59955 l -1.80462,9.96643 c -0.53319,3.03504 -0.98434,4.42952 -1.80462,5.41386 -1.02535,1.27143 -3.11708,2.09172 -5.24981,2.09172 -3.11706,0 -4.88067,-1.51753 -4.88067,-4.14243 0,-0.86129 0.16405,-2.95301 0.32811,-3.69127 l 1.72259,-9.63831 c 0.53318,-2.58388 1.1484,-3.1991 3.32214,-3.4862 l 0.90231,-0.082 0.61521,-3.32214 -14.2729,0 -0.61521,3.32214 0.90231,0.082 c 1.4765,0.12305 2.17375,0.73826 2.17375,1.88665 0,0.36913 -0.082,1.1484 -0.16406,1.59955 l -2.17375,12.01713 c -0.16405,1.02535 -0.32811,2.37882 -0.32811,2.99403 0,3.93735 3.93736,6.56225 9.84338,6.56225 4.30648,0 8.16181,-1.31245 10.41758,-3.56822 1.47651,-1.47651 2.3378,-3.44519 2.912,-6.48023 l 2.09172,-11.52496 c 0.49217,-2.58388 1.10738,-3.1991 3.28113,-3.4862 l 0.90231,-0.082 0.61521,-3.32214 -11.03279,0 -0.61521,3.32214"
                 id="path3160"
                 inkscape:connector-curvature="0" />
              <path
                 d="m 354.54147,453.14735 -0.5742,3.32214 0.90231,0.082 c 1.47651,0.12305 2.17375,0.73826 2.17375,1.88665 0,0.41014 -0.082,1.10738 -0.16406,1.59955 l -2.58388,14.14986 c -0.49217,2.54288 -1.10739,3.1991 -3.28113,3.4862 l -0.90231,0.082 -0.61521,3.32214 17.26693,0 c 3.89634,0 6.93138,-0.90231 9.10513,-2.70693 2.0507,-1.72259 3.36315,-4.34749 3.36315,-6.80834 0,-3.19909 -2.6249,-5.41386 -6.48022,-5.49589 4.3885,-0.53318 7.42355,-3.40417 7.42355,-7.05442 0,-2.00969 -1.02536,-3.81431 -2.70693,-4.75763 -1.47651,-0.82029 -3.36316,-1.10738 -7.46457,-1.10738 l -15.46231,0 m 8.03876,14.72405 3.44519,0 c 3.8143,0 5.2498,0.98434 5.2498,3.65026 0,1.68157 -0.69724,3.1991 -2.0507,4.42952 -1.31245,1.23042 -2.66592,1.68158 -4.79865,1.68158 -2.13273,0 -3.15809,-0.49217 -3.15809,-1.51752 0,-0.12305 0.12304,-1.23043 0.41014,-3.28113 l 0.90231,-4.96271 m 0.61521,-3.40417 0.90231,-4.92169 c 0.32812,-1.72259 0.61522,-2.37881 1.1484,-2.6249 0.61521,-0.32811 1.47651,-0.45115 2.74794,-0.45115 3.24011,0 4.92169,1.14839 4.92169,3.40417 0,2.99402 -2.54287,4.59357 -7.17746,4.59357 l -2.54288,0"
                 id="path3162"
                 inkscape:connector-curvature="0" />
              <path
                 d="m 401.90057,456.46949 0.90231,0.082 c 1.47651,0.12305 2.17375,0.73826 2.17375,1.88665 0,0.36913 -0.082,1.23043 -0.16406,1.59955 l -1.80462,9.96643 c -0.53318,3.03504 -0.98434,4.42952 -1.80462,5.41386 -1.02535,1.27143 -3.11707,2.09172 -5.2498,2.09172 -3.11707,0 -4.88068,-1.51753 -4.88068,-4.14243 0,-0.86129 0.16406,-2.95301 0.32811,-3.69127 l 1.7226,-9.63831 c 0.53318,-2.58388 1.14839,-3.1991 3.32214,-3.4862 l 0.90231,-0.082 0.61521,-3.32214 -14.2729,0 -0.61522,3.32214 0.90231,0.082 c 1.47651,0.12305 2.17375,0.73826 2.17375,1.88665 0,0.36913 -0.082,1.1484 -0.16406,1.59955 l -2.17374,12.01713 c -0.16406,1.02535 -0.32812,2.37882 -0.32812,2.99403 0,3.93735 3.93736,6.56225 9.84339,6.56225 4.30647,0 8.1618,-1.31245 10.41758,-3.56822 1.4765,-1.47651 2.3378,-3.44519 2.912,-6.48023 l 2.09171,-11.52496 c 0.49217,-2.58388 1.10739,-3.1991 3.28113,-3.4862 l 0.90231,-0.082 0.61521,-3.32214 -11.03279,0 -0.61521,3.32214"
                 id="path3164"
                 inkscape:connector-curvature="0" />
              <path
                 d="m 434.8445,481.07794 3.81431,-21.04023 c 0.53319,-2.58388 1.1484,-3.1991 3.32214,-3.4862 l 0.90231,-0.082 0.61522,-3.32214 -11.0328,0 -0.61521,3.32214 0.90231,0.082 c 1.47651,0.12305 2.17375,0.73826 2.17375,1.88665 0,0.36913 -0.082,1.18941 -0.16406,1.59955 l -1.88664,10.54062 -6.52124,-17.43098 -11.85308,0 -0.61521,3.32214 0.90231,0.082 c 1.47651,0.12305 2.17375,0.73826 2.17375,1.88665 0,0.36913 -0.082,1.1484 -0.16406,1.59955 l -2.54287,14.14986 c -0.53318,2.58389 -1.1484,3.1991 -3.32214,3.4862 l -0.90231,0.082 -0.61521,3.32214 11.03279,0 0.61521,-3.32214 -0.90231,-0.082 c -1.47651,-0.12304 -2.17375,-0.73825 -2.17375,-1.88665 0,-0.36912 0.082,-1.23042 0.16406,-1.59955 l 2.82997,-15.62636 8.77701,22.51673 5.08575,0"
                 id="path3166"
                 inkscape:connector-curvature="0" />
            </g>
          </g>
          <g
             id="text3017"
             style="font-size:50px;font-style:italic;font-variant:normal;font-weight:bold;font-stretch:normal;line-height:125%;letter-spacing:0px;word-spacing:0px;fill:#000000;fill-opacity:1;stroke:none;font-family:URW Bookman L;-inkscape-font-specification:URW Bookman L Bold Italic"
             transform="matrix(0.93601614,0,0,0.93601614,53.306702,54.332275)">
            <path
               id="path3169"
               d="m 604.6879,753.02915 -2.8,0 -0.6,1.5 c -3.34999,-1.55 -5.65,-2.15 -8.4,-2.15 -5.94999,0 -11.1,2.5 -14.65,7.1 -3.04999,3.94999 -4.85,8.9 -4.85,13.5 0,3.69999 1.55,7.6 4,10.15 2.85,2.89999 7.20001,4.6 11.95,4.6 7.09999,0 13.00001,-3.30001 17.05,-9.6 l -3.45,-2.25 c -2.9,4.39999 -7.5,7.25 -11.65,7.25 -5.19999,0 -8.3,-3.55001 -8.3,-9.55 0,-4.3 1.25,-8.80001 3.3,-11.95 2.05,-3.1 4.5,-4.65 7.35,-4.65 2.6,0 5.1,1.4 6.85,3.75 1.55,2.09999 2.7,4.5 3,6.2 l 3.7,-0.8 -2.5,-13.1"
               inkscape:connector-curvature="0" />
            <path
               id="path3171"
               d="m 621.14884,770.92915 12.5,0 -1.4,7.75 c -0.65,3.14999 -1.4,3.9 -4,4.25 l -1.15,0.1 -0.75,4.05 17.4,0 0.75,-4.05 -1.1,-0.1 c -1.8,-0.15 -2.65,-0.90001 -2.65,-2.3 0,-0.45 0.1,-1.40001 0.2,-1.95 l 3.15,-17.25 c 0.6,-3.1 1.35,-3.90001 4,-4.25 l 1.1,-0.1 0.75,-4.05 -17.4,0 -0.75,4.05 1.1,0.1 c 1.8,0.14999 2.65,0.9 2.65,2.3 0,0.49999 -0.1,1.45 -0.2,1.95 l -0.9,5 -12.5,0 0.9,-5 c 0.65,-3.1 1.4,-3.90001 4,-4.25 l 1.15,-0.1 0.7,-4.05 -17.4,0 -0.7,4.05 1.1,0.1 c 1.8,0.14999 2.65,0.9 2.65,2.3 0,0.49999 -0.1,1.35 -0.2,1.95 l -3.15,17.25 c -0.6,3.09999 -1.35,3.9 -4,4.25 l -1.1,0.1 -0.75,4.05 17.4,0 0.75,-4.05 -1.1,-0.1 c -1.8,-0.15 -2.65,-0.90001 -2.65,-2.25 0,-0.45 0.1,-1.60001 0.15,-2 l 1.45,-7.75"
               inkscape:connector-curvature="0" />
            <path
               id="path3173"
               d="m 673.0379,757.07915 1.1,0.1 c 1.8,0.14999 2.65,0.9 2.65,2.3 0,0.44999 -0.1,1.5 -0.2,1.95 l -2.2,12.15 c -0.65,3.69999 -1.2,5.4 -2.2,6.6 -1.25,1.54999 -3.8,2.55 -6.4,2.55 -3.79999,0 -5.95,-1.85001 -5.95,-5.05 0,-1.05 0.2,-3.60001 0.4,-4.5 l 2.1,-11.75 c 0.65,-3.15 1.4,-3.90001 4.05,-4.25 l 1.1,-0.1 0.75,-4.05 -17.4,0 -0.75,4.05 1.1,0.1 c 1.8,0.14999 2.65,0.9 2.65,2.3 0,0.44999 -0.1,1.4 -0.2,1.95 l -2.65,14.65 c -0.2,1.24999 -0.4,2.9 -0.4,3.65 0,4.79999 4.80001,8 12,8 5.25,0 9.95,-1.60001 12.7,-4.35 1.8,-1.8 2.85,-4.20001 3.55,-7.9 l 2.55,-14.05 c 0.6,-3.15 1.35,-3.90001 4,-4.25 l 1.1,-0.1 0.75,-4.05 -13.45,0 -0.75,4.05"
               inkscape:connector-curvature="0" />
          </g>
        </g>
      </g>
    </g>
  </g>
</svg>
